<svg height="512" viewBox="0 0 58 58" width="512" xmlns="http://www.w3.org/2000/svg"><g id="082---Female-User" fill="none"><circle id="Oval" cx="29" cy="29" fill="#3d324c" r="29"/><path id="Shape" d="m44 41.34c-.0530926.3070392-.0765338.6184728-.07.93 0 1.92.16 4.4.28 6.59-9.1419695 7.0063853-21.8927624 6.841059-30.85-.4.6649789-1.2491137 1.1146131-2.601397 1.33-4 .5892313-4.0859713-.9631752-8.1879504-4.11-10.86-2.46717178-1.9114722-3.78411121-4.9528854-3.49-8.06.17-3.26 2.76-6.62 4.59-9.24 3.62-5.21 9.51-11.86 16.38-12.3h.13c1.7613595-.07131456 3.5149173.27117719 5.12 1 6.69 2.82 11.76 8.37 15.22 14.44 1.06 1.86 2.34 3.88 2.46 6 .16 2.78-2 5.22-3.41 7.46-1.58 2.63-3.17 5.43-3.58 8.44z" fill="#805333"/><path id="Shape" d="m42 42.83c-.1.86-.09 1.41.16 7.43-8.19047 5.0716482-18.5700003 4.9704224-26.66-.26.5432722-1.2519141.9036294-2.5754689 1.07-3.93.5511621-4.1072338-.7576594-8.2463361-3.57-11.29-2.1990923-2.2065317-3.2990707-5.2791379-3-8.38.14-3.39 2.39-6.88 4-9.61 4.26-7.38 11.18-15.73 18.74-11.79 5.78 3 10.19 8.74 13.19 15.06.92 1.93 2 4 2.13 6.29.14 2.89-1.74 5.43-3 7.76-1.524954 2.7040578-2.5608334 5.6559756-3.06 8.72z" fill="#a56a43"/><path id="Shape" d="m41 51c-7.4481293 4.0510452-16.4418707 4.0510452-23.89 0 1.4785831-.7233829 2.8295771-1.6825886 4-2.84.331117-.3346467.5269803-.7797905.55-1.25.0465352-1.6245528-.1558067-3.2466607-.6-4.81h16c-.471026 1.5343878-.6872284 3.1356369-.64 4.74.0314478.4771255.2379942.9258298.58 1.26 1.1682268 1.1760424 2.5190076 2.1553585 4 2.9z" fill="#fdd7ad"/><path id="Shape" d="m37.06 42.07c-.2834207.9011064-.4711232 1.8295634-.56 2.77-2.3 2.78-5.82 6.2-9.15 4.84-2.27-.88-4.38-3.06-5.85-4.84-.0846058-.936278-.2519255-1.863229-.5-2.77z" fill="#f9c795"/><path id="Shape" d="m37.51 41.5c-2.54 3.22-6.34 7.64-10.16 6.11-2.55-1-4.91-3.7-6.37-5.54-2.54-3.25-4.48-6.31-3.65-10.35.4219953-1.5687836.4219953-3.2212164 0-4.79 13.3-2.14 14.36-11.26 14.36-11.48 0 0-.54 10.15 9.06 11.56-.4110051 1.5431011-.4110051 3.1668989 0 4.71.57 3.18-.37 6.03-3.24 9.78z" fill="#fdd7ad"/><path id="Shape" d="m14.28 27.28c-.0521958-.5494401.3506097-1.0372823.9-1.09 14.3-1.41 15.43-10.49 15.46-10.79.0266663-.5326668.4666665-.9506671 1-.95.5522847 0 1 .4477153 1 1-.1295803 2.8992609.8583278 5.7377071 2.76 7.93 1.77 1.86 4.33 2.8 7.64 2.8.5522847 0 1 .4477153 1 1s-.4477153 1-1 1c-6.46 0-10.44-3.27-11.87-8.53-1.9 3.35-6.17 7.58-15.8 8.53-.5494401.0521958-1.0372823-.3506097-1.09-.9z" fill="#805333"/></g></svg>